<svg width="18" height="18" viewBox="0 0 18 18" fill="none" xmlns="http://www.w3.org/2000/svg">
<rect width="18" height="18" fill="#E5E5E5"/>
<g id="Desktop" clip-path="url(#clip0_0_1)">
<rect width="1440" height="6624" transform="translate(-422 -4950)" fill="white"/>
<g id="Frame" clip-path="url(#clip1_0_1)">
<g id="Frame_2">
<g id="Frame_3">
<g id="Frame_4">
<g id="Frame_5">
<g id="Frame_6" clip-path="url(#clip2_0_1)">
<g id="Rectangle" filter="url(#filter0_d_0_1)">
<path d="M-238 -210C-238 -226.569 -224.569 -240 -208 -240H64C80.5685 -240 94 -226.569 94 -210V18C94 34.5685 80.5685 48 64 48H-208C-224.569 48 -238 34.5685 -238 18V-210Z" fill="white"/>
</g>
<g id="Frame_7">
<g id="Frame_8" clip-path="url(#clip3_0_1)">
<rect id="Rectangle_2" x="-10" y="-10" width="38" height="38" fill="#A8C1D8" fill-opacity="0.2"/>
<g id="Frame_9">
<g id="Frame_10">
<g id="Group">
<path id="Vector" d="M9.16838 3.56836C5.71405 3.56836 2.76405 5.71696 1.56885 8.74986C2.76405 11.7827 5.71405 13.9313 9.16838 13.9313C12.6227 13.9313 15.5727 11.7827 16.7679 8.74986C15.5727 5.71696 12.6227 3.56836 9.16838 3.56836ZM9.16838 12.2042C7.26159 12.2042 5.71405 10.6567 5.71405 8.74986C5.71405 6.84306 7.26159 5.29552 9.16838 5.29552C11.0751 5.29552 12.6227 6.84306 12.6227 8.74986C12.6227 10.6567 11.0751 12.2042 9.16838 12.2042ZM9.16838 6.67726C8.02154 6.67726 7.09578 7.60301 7.09578 8.74986C7.09578 9.89671 8.02154 10.8224 9.16838 10.8224C10.3153 10.8224 11.241 9.89671 11.241 8.74986C11.241 7.60301 10.3153 6.67726 9.16838 6.67726Z" fill="black" fill-opacity="0.7"/>
</g>
</g>
</g>
</g>
</g>
</g>
</g>
</g>
</g>
</g>
</g>
</g>
<defs>
<filter id="filter0_d_0_1" x="-257" y="-263" width="370" height="326" filterUnits="userSpaceOnUse" color-interpolation-filters="sRGB">
<feFlood flood-opacity="0" result="BackgroundImageFix"/>
<feColorMatrix in="SourceAlpha" type="matrix" values="0 0 0 0 0 0 0 0 0 0 0 0 0 0 0 0 0 0 127 0" result="hardAlpha"/>
<feOffset dy="-4"/>
<feGaussianBlur stdDeviation="9.5"/>
<feColorMatrix type="matrix" values="0 0 0 0 0 0 0 0 0 0 0 0 0 0 0 0 0 0 0.03 0"/>
<feBlend mode="normal" in2="BackgroundImageFix" result="effect1_dropShadow_0_1"/>
<feBlend mode="normal" in="SourceGraphic" in2="effect1_dropShadow_0_1" result="shape"/>
</filter>
<clipPath id="clip0_0_1">
<rect width="1440" height="6624" fill="white" transform="translate(-422 -4950)"/>
</clipPath>
<clipPath id="clip1_0_1">
<rect width="1440" height="6060" fill="white" transform="translate(-422 -4822)"/>
</clipPath>
<clipPath id="clip2_0_1">
<rect width="332" height="288" fill="white" transform="translate(-238 -240)"/>
</clipPath>
<clipPath id="clip3_0_1">
<rect width="38" height="38" fill="white" transform="translate(-10 -10)"/>
</clipPath>
</defs>
</svg>
